<mxfile host="app.diagrams.net" modified="2023-04-19T19:25:26.523Z" agent="Mozilla/5.0 (Windows NT 10.0; Win64; x64) AppleWebKit/537.36 (KHTML, like Gecko) Chrome/111.0.0.0 Safari/537.36 OPR/97.0.0.0" version="21.1.8" etag="W08DzTrn7sPZ1FETxSQP" type="github">
  <diagram name="Page-1" id="iTeq9bGCY1a40OLB5VjM">
    <mxGraphModel>
      <root>
        <mxCell id="0" />
        <mxCell id="1" parent="0" />
      </root>
    </mxGraphModel>
  </diagram>
</mxfile>
